PathFileType	4	(X/Y/Z)	./resultDataOpenSim/trcMotMarkerGrf/sub10/qtm-13-01.trc
DataRate	CameraRate	NumFrames	NumMarkers	Units	OrigDataRate	OrigDataStartFrame	OrigNumFrames
250.000000	250.000000	9	24	m	250.000000	223	444
Frame#	Time	L.Toe.Tip			R.Toe.Tip			L.Ankle.Lat			R.Ankle.Lat			L.Ankle.Med			R.Ankle.Med			L.Heel			R.Heel			L.Knee.Lat			R.Knee.Lat			L.Knee.Med			R.Knee.Med			L.Thigh.Upper			R.Thigh.Upper			L.ASIS			R.ASIS			V.Sacral			L.Acromium			R.Acromium			C7			L.Elbow			R.Elbow			L.Wrist.Lat			R.Wrist.Lat
		X1	Y1	Z1	X2	Y2	Z2	X3	Y3	Z3	X4	Y4	Z4	X5	Y5	Z5	X6	Y6	Z6	X7	Y7	Z7	X8	Y8	Z8	X9	Y9	Z9	X10	Y10	Z10	X11	Y11	Z11	X12	Y12	Z12	X13	Y13	Z13	X14	Y14	Z14	X15	Y15	Z15	X16	Y16	Z16	X17	Y17	Z17	X18	Y18	Z18	X19	Y19	Z19	X20	Y20	Z20	X21	Y21	Z21	X22	Y22	Z22	X23	Y23	Z23	X24	Y24	Z24

223	0.888	0.053954092	-0.008047999	-0.10264758	0.12506612	0.16886255	0.16008621	-0.076249932	0.015817433	-0.14412617	0.012717204	0.25572658	0.14916217	-0.075349026	0.038535943	-0.058050283	0.056746957	0.2422417	0.070932113	-0.14719788	-0.014391788	-0.10792918	-0.039927379	0.24273295	0.098081402	0.040251939	0.38454146	-0.16365874	0.26861406	0.5304391	0.13642043	0.037041571	0.36671159	-0.042846421	0.30368103	0.52695816	0.0015398876	0.022050464	0.77953323	-0.22472633	-0.022206593	0.80114502	0.15344707	0.073382303	0.8858375	-0.14845276	0.049976508	0.89779742	0.094601134	-0.13626715	0.90621026	-0.056818314	0.085125396	1.3475727	-0.18792232	0.029619773	1.3742466	0.10929677	-0.014382619	1.3929555	-0.059284413	-0.015568397	1.067157	-0.3578689	-0.13423719	1.1171295	0.29563295	0.13833243	0.94105466	-0.51272977	-0.00050884739	1.1504549	0.51060079
224	0.892	0.054037572	-0.0080804303	-0.10257767	0.14842032	0.16608511	0.16128625	-0.07604526	0.015901425	-0.14383023	0.032582157	0.24841044	0.15091005	-0.075094843	0.038418334	-0.057754969	0.07664645	0.23657851	0.072321694	-0.14699746	-0.014281041	-0.10790008	-0.019830726	0.23330688	0.10010985	0.041534818	0.38397012	-0.16285243	0.27828307	0.53330604	0.1356008	0.039191453	0.36608842	-0.042387462	0.31168433	0.5310825	0.0013698963	0.026989141	0.77933389	-0.2242364	-0.014345505	0.80246196	0.15440562	0.079361213	0.88580842	-0.14850774	0.057581353	0.89863775	0.094255937	-0.12995354	0.90649429	-0.055236067	0.091416882	1.3477241	-0.18777289	0.035754998	1.3750034	0.10903359	-0.007910324	1.3932853	-0.059361877	-0.0063041983	1.0677363	-0.36033728	-0.12991121	1.1204209	0.29605791	0.15105159	0.94526581	-0.51462925	-0.00067421971	1.1547578	0.51366528
225	0.896	0.054128077	-0.0081167416	-0.10248811	0.17182849	0.16338035	0.16228918	-0.075827705	0.015972268	-0.14345337	0.052555104	0.24107637	0.15265259	-0.074907674	0.038280302	-0.057402135	0.096712098	0.23092727	0.073596583	-0.1468311	-0.014144954	-0.1077867	0.00092124689	0.22366589	0.1020043	0.042959163	0.38348829	-0.16204424	0.28754415	0.53595164	0.13482201	0.041143852	0.36553087	-0.041847874	0.31905289	0.53485568	0.0014250788	0.031924613	0.77913451	-0.22374632	-0.0063613589	0.80370404	0.15535504	0.085316106	0.88580211	-0.14867324	0.065222857	0.89939121	0.093887619	-0.12373432	0.90675903	-0.053927384	0.097697461	1.3479335	-0.18761673	0.041826813	1.375776	0.10874997	-0.0014176769	1.3936206	-0.059468474	0.0029130666	1.0684227	-0.36275052	-0.12557495	1.1237008	0.2964747	0.16362075	0.94955819	-0.51638046	-0.00085881564	1.1591547	0.51658437
226	0.9	0.054224685	-0.0081555772	-0.10237481	0.19521973	0.16079617	0.16305236	-0.075647463	0.016068066	-0.14306118	0.072687857	0.23376661	0.15432874	-0.074906227	0.038179995	-0.0569793	0.11690404	0.22531503	0.074764344	-0.14672597	-0.013960179	-0.10755562	0.022228757	0.21399022	0.10371131	0.044518512	0.38312576	-0.16129632	0.29651711	0.53837142	0.13415096	0.042767022	0.36505394	-0.04118093	0.32577844	0.53823585	0.0017152878	0.036834724	0.77893644	-0.22325845	0.0017774929	0.80485642	0.15630125	0.091253937	0.88579784	-0.14891647	0.072909632	0.90005672	0.093516133	-0.11761705	0.90701114	-0.052997266	0.10398295	1.3481895	-0.18745157	0.047845381	1.3765529	0.10844657	0.0050905411	1.3939498	-0.059594922	0.012086323	1.0691813	-0.36509356	-0.12122898	1.1269632	0.29689686	0.17603293	0.95392351	-0.51798725	-0.0010476763	1.1636419	0.51935284
227	0.904	0.054321203	-0.0081946396	-0.10223598	0.21849633	0.15836233	0.16355583	-0.075543989	0.016214927	-0.14268658	0.093043518	0.2265339	0.15581985	-0.07509608	0.038133649	-0.056558126	0.1371717	0.21976953	0.0758323	-0.14666409	-0.013733232	-0.10724308	0.043852822	0.20453175	0.10513578	0.046162414	0.38283736	-0.16056652	0.30544073	0.54052027	0.13361873	0.044129213	0.36463117	-0.04039173	0.33210398	0.54115859	0.0021490409	0.041690092	0.77874198	-0.22277702	0.010090603	0.80589958	0.15726512	0.097186554	0.88578437	-0.14920221	0.080641022	0.90063594	0.093157258	-0.11139763	0.90716123	-0.052013531	0.11027535	1.3484851	-0.18729241	0.05382174	1.3773298	0.1081308	0.011601731	1.3942701	-0.059727276	0.021229189	1.0700112	-0.36734855	-0.11684962	1.1301971	0.29732146	0.18827982	0.95835386	-0.51945657	-0.0012652304	1.1682074	0.52196704
228	0.908	0.054409564	-0.008230742	-0.10207487	0.24159149	0.15604829	0.16380236	-0.0755117	0.016417327	-0.14232901	0.11360046	0.21942819	0.15707291	-0.075310974	0.038107477	-0.056208684	0.15749093	0.21433849	0.076773056	-0.14662212	-0.013477383	-0.10691721	0.065649449	0.19541118	0.10625094	0.047829259	0.38257481	-0.1598047	0.31454451	0.54233299	0.13319187	0.045400738	0.36421855	-0.039537628	0.33855261	0.54356841	0.0025011773	0.046500381	0.77855199	-0.2223039	0.01855922	0.80681997	0.15826568	0.10311984	0.885762	-0.14950849	0.088401998	0.9011363	0.0928169	-0.10472277	0.90707406	-0.050213055	0.1165613	1.348833	-0.18714936	0.059742313	1.3781108	0.10780306	0.018105636	1.3945791	-0.059853531	0.030363323	1.0709609	-0.36954155	-0.11241589	1.1333898	0.2977383	0.2003582	0.96284428	-0.52079595	-0.0015625386	1.1728414	0.52442692
229	0.912	0.054484747	-0.0082629833	-0.10190105	0.2644984	0.1537722	0.1638018	-0.075509344	0.016646629	-0.14197712	0.13429596	0.2124549	0.15811778	-0.075331502	0.038077918	-0.055852524	0.17785195	0.20907058	0.077543516	-0.14659025	-0.013196166	-0.10664288	0.087503692	0.18664264	0.1071578	0.0494495	0.38231168	-0.15899337	0.32371268	0.54375002	0.13289402	0.046571895	0.36381688	-0.038643373	0.34552982	0.54545148	0.0025945061	0.051407743	0.77835956	-0.22182736	0.027138948	0.80762426	0.15930949	0.1090451	0.88572885	-0.14982904	0.096180188	0.90157277	0.092492038	-0.097492539	0.90668534	-0.047363914	0.12283134	1.3492573	-0.18701418	0.065586523	1.3788976	0.10746196	0.02459328	1.3948666	-0.059974859	0.039500477	1.0720849	-0.37173676	-0.1079217	1.1365282	0.29814568	0.21227183	0.96739368	-0.52202023	-0.0019566107	1.1775502	0.5267397
230	0.916	0.054544347	-0.0082984575	-0.10172134	0.28725903	0.15145437	0.16355684	-0.075485744	0.016854362	-0.14162691	0.15508089	0.2055936	0.15899519	-0.075126586	0.038057916	-0.055397521	0.19821441	0.20399312	0.078125384	-0.14657236	-0.012880978	-0.10645523	0.10926464	0.17824874	0.10797071	0.050975792	0.38203332	-0.15814061	0.33252892	0.54473593	0.13283596	0.047516591	0.36346464	-0.037706975	0.35293294	0.54683004	0.0025206264	0.056751907	0.77814292	-0.22130879	0.035793749	0.80833977	0.16038393	0.11494839	0.88567521	-0.15016051	0.10396695	0.90196054	0.092174625	-0.090127284	0.90610432	-0.044191959	0.12909166	1.3497657	-0.18687171	0.071355267	1.379684	0.10710876	0.031052203	1.3951232	-0.060096216	0.048618098	1.0733686	-0.37403094	-0.10337503	1.1396116	0.29855659	0.22402355	0.9720016	-0.52315478	-0.0023912058	1.1823475	0.52891442
231	0.92	0.054583841	-0.0083495601	-0.10153122	0.30990977	0.14906452	0.16305824	-0.075395961	0.017018906	-0.14130033	0.17590808	0.19886316	0.15972109	-0.074962328	0.038068202	-0.054957949	0.21850743	0.19911921	0.078498687	-0.1465895	-0.012516129	-0.10632737	0.13089927	0.17023624	0.10869398	0.052421048	0.38174151	-0.15727241	0.34078453	0.54529948	0.13306251	0.048229756	0.363183	-0.036760158	0.36033124	0.54773408	0.0025715378	0.062872992	0.77787155	-0.22069198	0.044516732	0.80899785	0.16146415	0.12082788	0.88559633	-0.15049359	0.11173844	0.90230861	0.091852454	-0.083119787	0.90557226	-0.041534014	0.13535584	1.3503356	-0.18671032	0.077064421	1.3804613	0.10674013	0.037475652	1.3953473	-0.060213866	0.057645125	1.0747563	-0.37652074	-0.098790338	1.142651	0.2989852	0.23561232	0.97665956	-0.52421648	-0.0027635858	1.1872419	0.53095372
